<?xml version='1.0' encoding='UTF-8'?>
<svg width="57mm" height="57mm" version="1.1" viewBox="0 0 57 57" xmlns="http://www.w3.org/2000/svg"><path d="M4,4H5V5H4zM5,4H6V5H5zM6,4H7V5H6zM7,4H8V5H7zM8,4H9V5H8zM9,4H10V5H9zM10,4H11V5H10zM12,4H13V5H12zM13,4H14V5H13zM15,4H16V5H15zM17,4H18V5H17zM20,4H21V5H20zM22,4H23V5H22zM24,4H25V5H24zM25,4H26V5H25zM26,4H27V5H26zM28,4H29V5H28zM29,4H30V5H29zM30,4H31V5H30zM32,4H33V5H32zM34,4H35V5H34zM36,4H37V5H36zM38,4H39V5H38zM40,4H41V5H40zM44,4H45V5H44zM46,4H47V5H46zM47,4H48V5H47zM48,4H49V5H48zM49,4H50V5H49zM50,4H51V5H50zM51,4H52V5H51zM52,4H53V5H52zM4,5H5V6H4zM10,5H11V6H10zM12,5H13V6H12zM14,5H15V6H14zM17,5H18V6H17zM20,5H21V6H20zM24,5H25V6H24zM27,5H28V6H27zM28,5H29V6H28zM30,5H31V6H30zM31,5H32V6H31zM35,5H36V6H35zM38,5H39V6H38zM40,5H41V6H40zM41,5H42V6H41zM42,5H43V6H42zM43,5H44V6H43zM44,5H45V6H44zM46,5H47V6H46zM52,5H53V6H52zM4,6H5V7H4zM6,6H7V7H6zM7,6H8V7H7zM8,6H9V7H8zM10,6H11V7H10zM15,6H16V7H15zM17,6H18V7H17zM19,6H20V7H19zM22,6H23V7H22zM23,6H24V7H23zM26,6H27V7H26zM30,6H31V7H30zM31,6H32V7H31zM33,6H34V7H33zM36,6H37V7H36zM37,6H38V7H37zM39,6H40V7H39zM43,6H44V7H43zM44,6H45V7H44zM46,6H47V7H46zM48,6H49V7H48zM49,6H50V7H49zM50,6H51V7H50zM52,6H53V7H52zM4,7H5V8H4zM6,7H7V8H6zM7,7H8V8H7zM8,7H9V8H8zM10,7H11V8H10zM14,7H15V8H14zM16,7H17V8H16zM17,7H18V8H17zM18,7H19V8H18zM21,7H22V8H21zM24,7H25V8H24zM26,7H27V8H26zM28,7H29V8H28zM30,7H31V8H30zM31,7H32V8H31zM32,7H33V8H32zM33,7H34V8H33zM34,7H35V8H34zM36,7H37V8H36zM39,7H40V8H39zM40,7H41V8H40zM41,7H42V8H41zM43,7H44V8H43zM46,7H47V8H46zM48,7H49V8H48zM49,7H50V8H49zM50,7H51V8H50zM52,7H53V8H52zM4,8H5V9H4zM6,8H7V9H6zM7,8H8V9H7zM8,8H9V9H8zM10,8H11V9H10zM14,8H15V9H14zM16,8H17V9H16zM17,8H18V9H17zM18,8H19V9H18zM19,8H20V9H19zM20,8H21V9H20zM23,8H24V9H23zM24,8H25V9H24zM25,8H26V9H25zM26,8H27V9H26zM27,8H28V9H27zM28,8H29V9H28zM29,8H30V9H29zM30,8H31V9H30zM33,8H34V9H33zM34,8H35V9H34zM36,8H37V9H36zM39,8H40V9H39zM40,8H41V9H40zM41,8H42V9H41zM46,8H47V9H46zM48,8H49V9H48zM49,8H50V9H49zM50,8H51V9H50zM52,8H53V9H52zM4,9H5V10H4zM10,9H11V10H10zM13,9H14V10H13zM14,9H15V10H14zM17,9H18V10H17zM19,9H20V10H19zM20,9H21V10H20zM23,9H24V10H23zM24,9H25V10H24zM26,9H27V10H26zM30,9H31V10H30zM31,9H32V10H31zM32,9H33V10H32zM37,9H38V10H37zM38,9H39V10H38zM41,9H42V10H41zM42,9H43V10H42zM46,9H47V10H46zM52,9H53V10H52zM4,10H5V11H4zM5,10H6V11H5zM6,10H7V11H6zM7,10H8V11H7zM8,10H9V11H8zM9,10H10V11H9zM10,10H11V11H10zM12,10H13V11H12zM14,10H15V11H14zM16,10H17V11H16zM18,10H19V11H18zM20,10H21V11H20zM22,10H23V11H22zM24,10H25V11H24zM26,10H27V11H26zM28,10H29V11H28zM30,10H31V11H30zM32,10H33V11H32zM34,10H35V11H34zM36,10H37V11H36zM38,10H39V11H38zM40,10H41V11H40zM42,10H43V11H42zM44,10H45V11H44zM46,10H47V11H46zM47,10H48V11H47zM48,10H49V11H48zM49,10H50V11H49zM50,10H51V11H50zM51,10H52V11H51zM52,10H53V11H52zM19,11H20V12H19zM21,11H22V12H21zM25,11H26V12H25zM26,11H27V12H26zM30,11H31V12H30zM31,11H32V12H31zM34,11H35V12H34zM41,11H42V12H41zM42,11H43V12H42zM43,11H44V12H43zM44,11H45V12H44zM5,12H6V13H5zM10,12H11V13H10zM11,12H12V13H11zM12,12H13V13H12zM16,12H17V13H16zM18,12H19V13H18zM19,12H20V13H19zM20,12H21V13H20zM22,12H23V13H22zM26,12H27V13H26zM27,12H28V13H27zM28,12H29V13H28zM29,12H30V13H29zM30,12H31V13H30zM33,12H34V13H33zM34,12H35V13H34zM35,12H36V13H35zM36,12H37V13H36zM37,12H38V13H37zM38,12H39V13H38zM39,12H40V13H39zM40,12H41V13H40zM41,12H42V13H41zM42,12H43V13H42zM43,12H44V13H43zM44,12H45V13H44zM45,12H46V13H45zM51,12H52V13H51zM52,12H53V13H52zM4,13H5V14H4zM6,13H7V14H6zM8,13H9V14H8zM9,13H10V14H9zM12,13H13V14H12zM13,13H14V14H13zM14,13H15V14H14zM15,13H16V14H15zM16,13H17V14H16zM17,13H18V14H17zM19,13H20V14H19zM21,13H22V14H21zM31,13H32V14H31zM32,13H33V14H32zM33,13H34V14H33zM34,13H35V14H34zM37,13H38V14H37zM38,13H39V14H38zM41,13H42V14H41zM42,13H43V14H42zM43,13H44V14H43zM44,13H45V14H44zM45,13H46V14H45zM46,13H47V14H46zM47,13H48V14H47zM48,13H49V14H48zM49,13H50V14H49zM51,13H52V14H51zM4,14H5V15H4zM5,14H6V15H5zM6,14H7V15H6zM7,14H8V15H7zM9,14H10V15H9zM10,14H11V15H10zM11,14H12V15H11zM12,14H13V15H12zM14,14H15V15H14zM16,14H17V15H16zM20,14H21V15H20zM24,14H25V15H24zM26,14H27V15H26zM27,14H28V15H27zM30,14H31V15H30zM31,14H32V15H31zM33,14H34V15H33zM35,14H36V15H35zM36,14H37V15H36zM37,14H38V15H37zM38,14H39V15H38zM39,14H40V15H39zM41,14H42V15H41zM42,14H43V15H42zM43,14H44V15H43zM45,14H46V15H45zM50,14H51V15H50zM51,14H52V15H51zM52,14H53V15H52zM4,15H5V16H4zM5,15H6V16H5zM6,15H7V16H6zM7,15H8V16H7zM8,15H9V16H8zM12,15H13V16H12zM13,15H14V16H13zM17,15H18V16H17zM19,15H20V16H19zM21,15H22V16H21zM22,15H23V16H22zM25,15H26V16H25zM27,15H28V16H27zM31,15H32V16H31zM34,15H35V16H34zM36,15H37V16H36zM37,15H38V16H37zM39,15H40V16H39zM41,15H42V16H41zM44,15H45V16H44zM45,15H46V16H45zM46,15H47V16H46zM48,15H49V16H48zM49,15H50V16H49zM51,15H52V16H51zM6,16H7V17H6zM7,16H8V17H7zM10,16H11V17H10zM12,16H13V17H12zM16,16H17V17H16zM17,16H18V17H17zM18,16H19V17H18zM21,16H22V17H21zM22,16H23V17H22zM26,16H27V17H26zM29,16H30V17H29zM32,16H33V17H32zM34,16H35V17H34zM36,16H37V17H36zM40,16H41V17H40zM41,16H42V17H41zM42,16H43V17H42zM43,16H44V17H43zM45,16H46V17H45zM46,16H47V17H46zM48,16H49V17H48zM49,16H50V17H49zM6,17H7V18H6zM7,17H8V18H7zM9,17H10V18H9zM11,17H12V18H11zM12,17H13V18H12zM13,17H14V18H13zM15,17H16V18H15zM17,17H18V18H17zM18,17H19V18H18zM19,17H20V18H19zM20,17H21V18H20zM23,17H24V18H23zM24,17H25V18H24zM26,17H27V18H26zM27,17H28V18H27zM29,17H30V18H29zM33,17H34V18H33zM34,17H35V18H34zM35,17H36V18H35zM36,17H37V18H36zM37,17H38V18H37zM39,17H40V18H39zM45,17H46V18H45zM46,17H47V18H46zM47,17H48V18H47zM4,18H5V19H4zM5,18H6V19H5zM8,18H9V19H8zM9,18H10V19H9zM10,18H11V19H10zM11,18H12V19H11zM12,18H13V19H12zM13,18H14V19H13zM14,18H15V19H14zM15,18H16V19H15zM17,18H18V19H17zM19,18H20V19H19zM21,18H22V19H21zM24,18H25V19H24zM25,18H26V19H25zM26,18H27V19H26zM29,18H30V19H29zM35,18H36V19H35zM36,18H37V19H36zM37,18H38V19H37zM38,18H39V19H38zM39,18H40V19H39zM42,18H43V19H42zM43,18H44V19H43zM44,18H45V19H44zM48,18H49V19H48zM49,18H50V19H49zM51,18H52V19H51zM52,18H53V19H52zM4,19H5V20H4zM6,19H7V20H6zM7,19H8V20H7zM8,19H9V20H8zM11,19H12V20H11zM12,19H13V20H12zM14,19H15V20H14zM15,19H16V20H15zM17,19H18V20H17zM21,19H22V20H21zM22,19H23V20H22zM23,19H24V20H23zM24,19H25V20H24zM25,19H26V20H25zM26,19H27V20H26zM31,19H32V20H31zM32,19H33V20H32zM34,19H35V20H34zM38,19H39V20H38zM39,19H40V20H39zM42,19H43V20H42zM45,19H46V20H45zM46,19H47V20H46zM47,19H48V20H47zM50,19H51V20H50zM51,19H52V20H51zM52,19H53V20H52zM4,20H5V21H4zM6,20H7V21H6zM9,20H10V21H9zM10,20H11V21H10zM11,20H12V21H11zM12,20H13V21H12zM14,20H15V21H14zM15,20H16V21H15zM16,20H17V21H16zM29,20H30V21H29zM33,20H34V21H33zM34,20H35V21H34zM35,20H36V21H35zM39,20H40V21H39zM40,20H41V21H40zM41,20H42V21H41zM43,20H44V21H43zM44,20H45V21H44zM45,20H46V21H45zM46,20H47V21H46zM47,20H48V21H47zM49,20H50V21H49zM50,20H51V21H50zM51,20H52V21H51zM4,21H5V22H4zM5,21H6V22H5zM8,21H9V22H8zM9,21H10V22H9zM11,21H12V22H11zM12,21H13V22H12zM17,21H18V22H17zM20,21H21V22H20zM23,21H24V22H23zM24,21H25V22H24zM26,21H27V22H26zM28,21H29V22H28zM31,21H32V22H31zM34,21H35V22H34zM35,21H36V22H35zM37,21H38V22H37zM39,21H40V22H39zM41,21H42V22H41zM43,21H44V22H43zM45,21H46V22H45zM46,21H47V22H46zM47,21H48V22H47zM48,21H49V22H48zM50,21H51V22H50zM4,22H5V23H4zM5,22H6V23H5zM8,22H9V23H8zM10,22H11V23H10zM11,22H12V23H11zM13,22H14V23H13zM15,22H16V23H15zM16,22H17V23H16zM18,22H19V23H18zM20,22H21V23H20zM21,22H22V23H21zM22,22H23V23H22zM26,22H27V23H26zM29,22H30V23H29zM31,22H32V23H31zM34,22H35V23H34zM36,22H37V23H36zM44,22H45V23H44zM45,22H46V23H45zM49,22H50V23H49zM50,22H51V23H50zM51,22H52V23H51zM52,22H53V23H52zM5,23H6V24H5zM8,23H9V24H8zM9,23H10V24H9zM14,23H15V24H14zM15,23H16V24H15zM17,23H18V24H17zM18,23H19V24H18zM19,23H20V24H19zM21,23H22V24H21zM23,23H24V24H23zM25,23H26V24H25zM26,23H27V24H26zM27,23H28V24H27zM31,23H32V24H31zM32,23H33V24H32zM33,23H34V24H33zM36,23H37V24H36zM37,23H38V24H37zM39,23H40V24H39zM41,23H42V24H41zM42,23H43V24H42zM43,23H44V24H43zM46,23H47V24H46zM47,23H48V24H47zM48,23H49V24H48zM49,23H50V24H49zM51,23H52V24H51zM52,23H53V24H52zM4,24H5V25H4zM10,24H11V25H10zM11,24H12V25H11zM14,24H15V25H14zM17,24H18V25H17zM19,24H20V25H19zM23,24H24V25H23zM25,24H26V25H25zM26,24H27V25H26zM29,24H30V25H29zM31,24H32V25H31zM35,24H36V25H35zM37,24H38V25H37zM39,24H40V25H39zM40,24H41V25H40zM41,24H42V25H41zM42,24H43V25H42zM44,24H45V25H44zM46,24H47V25H46zM47,24H48V25H47zM50,24H51V25H50zM51,24H52V25H51zM5,25H6V26H5zM8,25H9V26H8zM11,25H12V26H11zM16,25H17V26H16zM17,25H18V26H17zM19,25H20V26H19zM21,25H22V26H21zM22,25H23V26H22zM23,25H24V26H23zM25,25H26V26H25zM26,25H27V26H26zM27,25H28V26H27zM28,25H29V26H28zM33,25H34V26H33zM34,25H35V26H34zM36,25H37V26H36zM37,25H38V26H37zM38,25H39V26H38zM39,25H40V26H39zM42,25H43V26H42zM43,25H44V26H43zM44,25H45V26H44zM45,25H46V26H45zM46,25H47V26H46zM48,25H49V26H48zM49,25H50V26H49zM4,26H5V27H4zM6,26H7V27H6zM7,26H8V27H7zM8,26H9V27H8zM9,26H10V27H9zM10,26H11V27H10zM11,26H12V27H11zM12,26H13V27H12zM14,26H15V27H14zM17,26H18V27H17zM18,26H19V27H18zM19,26H20V27H19zM21,26H22V27H21zM26,26H27V27H26zM27,26H28V27H27zM28,26H29V27H28zM29,26H30V27H29zM30,26H31V27H30zM31,26H32V27H31zM32,26H33V27H32zM35,26H36V27H35zM37,26H38V27H37zM38,26H39V27H38zM40,26H41V27H40zM42,26H43V27H42zM44,26H45V27H44zM45,26H46V27H45zM46,26H47V27H46zM47,26H48V27H47zM48,26H49V27H48zM50,26H51V27H50zM51,26H52V27H51zM52,26H53V27H52zM4,27H5V28H4zM8,27H9V28H8zM12,27H13V28H12zM13,27H14V28H13zM15,27H16V28H15zM16,27H17V28H16zM18,27H19V28H18zM21,27H22V28H21zM23,27H24V28H23zM24,27H25V28H24zM25,27H26V28H25zM26,27H27V28H26zM30,27H31V28H30zM33,27H34V28H33zM36,27H37V28H36zM38,27H39V28H38zM42,27H43V28H42zM43,27H44V28H43zM44,27H45V28H44zM48,27H49V28H48zM49,27H50V28H49zM51,27H52V28H51zM8,28H9V29H8zM10,28H11V29H10zM12,28H13V29H12zM18,28H19V29H18zM21,28H22V29H21zM22,28H23V29H22zM23,28H24V29H23zM25,28H26V29H25zM26,28H27V29H26zM28,28H29V29H28zM30,28H31V29H30zM33,28H34V29H33zM36,28H37V29H36zM38,28H39V29H38zM40,28H41V29H40zM42,28H43V29H42zM43,28H44V29H43zM44,28H45V29H44zM46,28H47V29H46zM48,28H49V29H48zM49,28H50V29H49zM52,28H53V29H52zM4,29H5V30H4zM6,29H7V30H6zM7,29H8V30H7zM8,29H9V30H8zM12,29H13V30H12zM14,29H15V30H14zM16,29H17V30H16zM17,29H18V30H17zM20,29H21V30H20zM21,29H22V30H21zM22,29H23V30H22zM25,29H26V30H25zM26,29H27V30H26zM30,29H31V30H30zM32,29H33V30H32zM33,29H34V30H33zM34,29H35V30H34zM35,29H36V30H35zM41,29H42V30H41zM44,29H45V30H44zM48,29H49V30H48zM49,29H50V30H49zM50,29H51V30H50zM51,29H52V30H51zM4,30H5V31H4zM5,30H6V31H5zM8,30H9V31H8zM9,30H10V31H9zM10,30H11V31H10zM11,30H12V31H11zM12,30H13V31H12zM14,30H15V31H14zM18,30H19V31H18zM21,30H22V31H21zM22,30H23V31H22zM24,30H25V31H24zM25,30H26V31H25zM26,30H27V31H26zM27,30H28V31H27zM28,30H29V31H28zM29,30H30V31H29zM30,30H31V31H30zM32,30H33V31H32zM35,30H36V31H35zM36,30H37V31H36zM37,30H38V31H37zM38,30H39V31H38zM40,30H41V31H40zM42,30H43V31H42zM43,30H44V31H43zM44,30H45V31H44zM45,30H46V31H45zM46,30H47V31H46zM47,30H48V31H47zM48,30H49V31H48zM50,30H51V31H50zM51,30H52V31H51zM52,30H53V31H52zM5,31H6V32H5zM7,31H8V32H7zM8,31H9V32H8zM9,31H10V32H9zM11,31H12V32H11zM15,31H16V32H15zM16,31H17V32H16zM18,31H19V32H18zM19,31H20V32H19zM22,31H23V32H22zM23,31H24V32H23zM24,31H25V32H24zM26,31H27V32H26zM27,31H28V32H27zM28,31H29V32H28zM29,31H30V32H29zM31,31H32V32H31zM33,31H34V32H33zM34,31H35V32H34zM37,31H38V32H37zM38,31H39V32H38zM42,31H43V32H42zM43,31H44V32H43zM45,31H46V32H45zM47,31H48V32H47zM48,31H49V32H48zM49,31H50V32H49zM50,31H51V32H50zM52,31H53V32H52zM5,32H6V33H5zM7,32H8V33H7zM10,32H11V33H10zM12,32H13V33H12zM13,32H14V33H13zM15,32H16V33H15zM16,32H17V33H16zM21,32H22V33H21zM22,32H23V33H22zM23,32H24V33H23zM27,32H28V33H27zM28,32H29V33H28zM29,32H30V33H29zM30,32H31V33H30zM33,32H34V33H33zM34,32H35V33H34zM35,32H36V33H35zM39,32H40V33H39zM40,32H41V33H40zM42,32H43V33H42zM43,32H44V33H43zM45,32H46V33H45zM46,32H47V33H46zM48,32H49V33H48zM49,32H50V33H49zM50,32H51V33H50zM52,32H53V33H52zM5,33H6V34H5zM6,33H7V34H6zM7,33H8V34H7zM8,33H9V34H8zM9,33H10V34H9zM13,33H14V34H13zM15,33H16V34H15zM16,33H17V34H16zM18,33H19V34H18zM20,33H21V34H20zM21,33H22V34H21zM25,33H26V34H25zM26,33H27V34H26zM29,33H30V34H29zM30,33H31V34H30zM31,33H32V34H31zM33,33H34V34H33zM34,33H35V34H34zM35,33H36V34H35zM37,33H38V34H37zM39,33H40V34H39zM41,33H42V34H41zM43,33H44V34H43zM44,33H45V34H44zM45,33H46V34H45zM46,33H47V34H46zM47,33H48V34H47zM5,34H6V35H5zM6,34H7V35H6zM9,34H10V35H9zM10,34H11V35H10zM13,34H14V35H13zM15,34H16V35H15zM16,34H17V35H16zM17,34H18V35H17zM18,34H19V35H18zM19,34H20V35H19zM20,34H21V35H20zM25,34H26V35H25zM28,34H29V35H28zM29,34H30V35H29zM30,34H31V35H30zM31,34H32V35H31zM32,34H33V35H32zM33,34H34V35H33zM36,34H37V35H36zM37,34H38V35H37zM40,34H41V35H40zM41,34H42V35H41zM43,34H44V35H43zM46,34H47V35H46zM47,34H48V35H47zM49,34H50V35H49zM50,34H51V35H50zM51,34H52V35H51zM52,34H53V35H52zM4,35H5V36H4zM5,35H6V36H5zM6,35H7V36H6zM7,35H8V36H7zM8,35H9V36H8zM9,35H10V36H9zM14,35H15V36H14zM16,35H17V36H16zM17,35H18V36H17zM19,35H20V36H19zM23,35H24V36H23zM24,35H25V36H24zM25,35H26V36H25zM28,35H29V36H28zM29,35H30V36H29zM30,35H31V36H30zM31,35H32V36H31zM34,35H35V36H34zM37,35H38V36H37zM44,35H45V36H44zM45,35H46V36H45zM49,35H50V36H49zM51,35H52V36H51zM5,36H6V37H5zM9,36H10V37H9zM10,36H11V37H10zM11,36H12V37H11zM12,36H13V37H12zM13,36H14V37H13zM17,36H18V37H17zM19,36H20V37H19zM21,36H22V37H21zM22,36H23V37H22zM24,36H25V37H24zM30,36H31V37H30zM31,36H32V37H31zM33,36H34V37H33zM40,36H41V37H40zM42,36H43V37H42zM43,36H44V37H43zM44,36H45V37H44zM45,36H46V37H45zM47,36H48V37H47zM48,36H49V37H48zM49,36H50V37H49zM50,36H51V37H50zM52,36H53V37H52zM4,37H5V38H4zM6,37H7V38H6zM9,37H10V38H9zM11,37H12V38H11zM15,37H16V38H15zM17,37H18V38H17zM18,37H19V38H18zM22,37H23V38H22zM25,37H26V38H25zM27,37H28V38H27zM28,37H29V38H28zM30,37H31V38H30zM31,37H32V38H31zM32,37H33V38H32zM33,37H34V38H33zM34,37H35V38H34zM35,37H36V38H35zM37,37H38V38H37zM38,37H39V38H38zM39,37H40V38H39zM40,37H41V38H40zM41,37H42V38H41zM42,37H43V38H42zM46,37H47V38H46zM47,37H48V38H47zM48,37H49V38H48zM49,37H50V38H49zM51,37H52V38H51zM52,37H53V38H52zM4,38H5V39H4zM6,38H7V39H6zM8,38H9V39H8zM9,38H10V39H9zM10,38H11V39H10zM12,38H13V39H12zM13,38H14V39H13zM14,38H15V39H14zM16,38H17V39H16zM17,38H18V39H17zM19,38H20V39H19zM23,38H24V39H23zM25,38H26V39H25zM26,38H27V39H26zM27,38H28V39H27zM28,38H29V39H28zM29,38H30V39H29zM31,38H32V39H31zM36,38H37V39H36zM37,38H38V39H37zM38,38H39V39H38zM39,38H40V39H39zM40,38H41V39H40zM42,38H43V39H42zM43,38H44V39H43zM45,38H46V39H45zM46,38H47V39H46zM47,38H48V39H47zM49,38H50V39H49zM51,38H52V39H51zM52,38H53V39H52zM4,39H5V40H4zM9,39H10V40H9zM12,39H13V40H12zM13,39H14V40H13zM14,39H15V40H14zM15,39H16V40H15zM16,39H17V40H16zM18,39H19V40H18zM19,39H20V40H19zM22,39H23V40H22zM24,39H25V40H24zM26,39H27V40H26zM30,39H31V40H30zM32,39H33V40H32zM33,39H34V40H33zM34,39H35V40H34zM36,39H37V40H36zM37,39H38V40H37zM38,39H39V40H38zM41,39H42V40H41zM42,39H43V40H42zM43,39H44V40H43zM44,39H45V40H44zM49,39H50V40H49zM52,39H53V40H52zM5,40H6V41H5zM6,40H7V41H6zM10,40H11V41H10zM12,40H13V41H12zM13,40H14V41H13zM14,40H15V41H14zM17,40H18V41H17zM18,40H19V41H18zM19,40H20V41H19zM23,40H24V41H23zM26,40H27V41H26zM27,40H28V41H27zM29,40H30V41H29zM30,40H31V41H30zM32,40H33V41H32zM33,40H34V41H33zM34,40H35V41H34zM36,40H37V41H36zM37,40H38V41H37zM40,40H41V41H40zM43,40H44V41H43zM46,40H47V41H46zM47,40H48V41H47zM49,40H50V41H49zM52,40H53V41H52zM4,41H5V42H4zM5,41H6V42H5zM6,41H7V42H6zM8,41H9V42H8zM13,41H14V42H13zM14,41H15V42H14zM15,41H16V42H15zM17,41H18V42H17zM18,41H19V42H18zM22,41H23V42H22zM26,41H27V42H26zM27,41H28V42H27zM31,41H32V42H31zM32,41H33V42H32zM34,41H35V42H34zM37,41H38V42H37zM40,41H41V42H40zM41,41H42V42H41zM43,41H44V42H43zM46,41H47V42H46zM47,41H48V42H47zM49,41H50V42H49zM50,41H51V42H50zM5,42H6V43H5zM9,42H10V43H9zM10,42H11V43H10zM11,42H12V43H11zM12,42H13V43H12zM13,42H14V43H13zM16,42H17V43H16zM18,42H19V43H18zM20,42H21V43H20zM21,42H22V43H21zM24,42H25V43H24zM26,42H27V43H26zM28,42H29V43H28zM29,42H30V43H29zM30,42H31V43H30zM32,42H33V43H32zM35,42H36V43H35zM36,42H37V43H36zM37,42H38V43H37zM38,42H39V43H38zM39,42H40V43H39zM40,42H41V43H40zM42,42H43V43H42zM43,42H44V43H43zM44,42H45V43H44zM45,42H46V43H45zM46,42H47V43H46zM51,42H52V43H51zM52,42H53V43H52zM5,43H6V44H5zM6,43H7V44H6zM7,43H8V44H7zM11,43H12V44H11zM15,43H16V44H15zM16,43H17V44H16zM17,43H18V44H17zM18,43H19V44H18zM21,43H22V44H21zM22,43H23V44H22zM23,43H24V44H23zM29,43H30V44H29zM30,43H31V44H30zM31,43H32V44H31zM33,43H34V44H33zM38,43H39V44H38zM42,43H43V44H42zM43,43H44V44H43zM44,43H45V44H44zM47,43H48V44H47zM49,43H50V44H49zM50,43H51V44H50zM51,43H52V44H51zM4,44H5V45H4zM5,44H6V45H5zM6,44H7V45H6zM10,44H11V45H10zM11,44H12V45H11zM12,44H13V45H12zM14,44H15V45H14zM15,44H16V45H15zM19,44H20V45H19zM20,44H21V45H20zM22,44H23V45H22zM23,44H24V45H23zM24,44H25V45H24zM26,44H27V45H26zM27,44H28V45H27zM28,44H29V45H28zM29,44H30V45H29zM30,44H31V45H30zM35,44H36V45H35zM37,44H38V45H37zM40,44H41V45H40zM41,44H42V45H41zM42,44H43V45H42zM43,44H44V45H43zM44,44H45V45H44zM45,44H46V45H45zM46,44H47V45H46zM47,44H48V45H47zM48,44H49V45H48zM50,44H51V45H50zM51,44H52V45H51zM12,45H13V46H12zM13,45H14V46H13zM15,45H16V46H15zM17,45H18V46H17zM18,45H19V46H18zM20,45H21V46H20zM22,45H23V46H22zM25,45H26V46H25zM26,45H27V46H26zM30,45H31V46H30zM31,45H32V46H31zM33,45H34V46H33zM37,45H38V46H37zM39,45H40V46H39zM40,45H41V46H40zM41,45H42V46H41zM43,45H44V46H43zM44,45H45V46H44zM48,45H49V46H48zM49,45H50V46H49zM4,46H5V47H4zM5,46H6V47H5zM6,46H7V47H6zM7,46H8V47H7zM8,46H9V47H8zM9,46H10V47H9zM10,46H11V47H10zM12,46H13V47H12zM13,46H14V47H13zM14,46H15V47H14zM15,46H16V47H15zM16,46H17V47H16zM18,46H19V47H18zM21,46H22V47H21zM22,46H23V47H22zM24,46H25V47H24zM25,46H26V47H25zM26,46H27V47H26zM28,46H29V47H28zM30,46H31V47H30zM32,46H33V47H32zM33,46H34V47H33zM34,46H35V47H34zM37,46H38V47H37zM41,46H42V47H41zM44,46H45V47H44zM46,46H47V47H46zM48,46H49V47H48zM49,46H50V47H49zM50,46H51V47H50zM52,46H53V47H52zM4,47H5V48H4zM10,47H11V48H10zM14,47H15V48H14zM15,47H16V48H15zM21,47H22V48H21zM22,47H23V48H22zM23,47H24V48H23zM24,47H25V48H24zM26,47H27V48H26zM30,47H31V48H30zM31,47H32V48H31zM32,47H33V48H32zM34,47H35V48H34zM35,47H36V48H35zM36,47H37V48H36zM38,47H39V48H38zM41,47H42V48H41zM42,47H43V48H42zM44,47H45V48H44zM48,47H49V48H48zM49,47H50V48H49zM51,47H52V48H51zM4,48H5V49H4zM6,48H7V49H6zM7,48H8V49H7zM8,48H9V49H8zM10,48H11V49H10zM14,48H15V49H14zM16,48H17V49H16zM18,48H19V49H18zM22,48H23V49H22zM23,48H24V49H23zM24,48H25V49H24zM25,48H26V49H25zM26,48H27V49H26zM27,48H28V49H27zM28,48H29V49H28zM29,48H30V49H29zM30,48H31V49H30zM33,48H34V49H33zM35,48H36V49H35zM37,48H38V49H37zM39,48H40V49H39zM40,48H41V49H40zM41,48H42V49H41zM42,48H43V49H42zM43,48H44V49H43zM44,48H45V49H44zM45,48H46V49H45zM46,48H47V49H46zM47,48H48V49H47zM48,48H49V49H48zM50,48H51V49H50zM51,48H52V49H51zM4,49H5V50H4zM6,49H7V50H6zM7,49H8V50H7zM8,49H9V50H8zM10,49H11V50H10zM13,49H14V50H13zM15,49H16V50H15zM16,49H17V50H16zM18,49H19V50H18zM19,49H20V50H19zM20,49H21V50H20zM21,49H22V50H21zM22,49H23V50H22zM24,49H25V50H24zM27,49H28V50H27zM28,49H29V50H28zM33,49H34V50H33zM34,49H35V50H34zM35,49H36V50H35zM36,49H37V50H36zM37,49H38V50H37zM38,49H39V50H38zM39,49H40V50H39zM40,49H41V50H40zM41,49H42V50H41zM42,49H43V50H42zM45,49H46V50H45zM46,49H47V50H46zM4,50H5V51H4zM6,50H7V51H6zM7,50H8V51H7zM8,50H9V51H8zM10,50H11V51H10zM14,50H15V51H14zM15,50H16V51H15zM16,50H17V51H16zM18,50H19V51H18zM19,50H20V51H19zM20,50H21V51H20zM21,50H22V51H21zM23,50H24V51H23zM24,50H25V51H24zM25,50H26V51H25zM26,50H27V51H26zM27,50H28V51H27zM28,50H29V51H28zM30,50H31V51H30zM32,50H33V51H32zM36,50H37V51H36zM38,50H39V51H38zM39,50H40V51H39zM40,50H41V51H40zM42,50H43V51H42zM45,50H46V51H45zM46,50H47V51H46zM47,50H48V51H47zM50,50H51V51H50zM51,50H52V51H51zM52,50H53V51H52zM4,51H5V52H4zM10,51H11V52H10zM12,51H13V52H12zM13,51H14V52H13zM15,51H16V52H15zM17,51H18V52H17zM18,51H19V52H18zM20,51H21V52H20zM21,51H22V52H21zM23,51H24V52H23zM26,51H27V52H26zM28,51H29V52H28zM29,51H30V52H29zM30,51H31V52H30zM31,51H32V52H31zM34,51H35V52H34zM36,51H37V52H36zM37,51H38V52H37zM38,51H39V52H38zM39,51H40V52H39zM42,51H43V52H42zM45,51H46V52H45zM46,51H47V52H46zM48,51H49V52H48zM49,51H50V52H49zM52,51H53V52H52zM4,52H5V53H4zM5,52H6V53H5zM6,52H7V53H6zM7,52H8V53H7zM8,52H9V53H8zM9,52H10V53H9zM10,52H11V53H10zM13,52H14V53H13zM16,52H17V53H16zM18,52H19V53H18zM19,52H20V53H19zM21,52H22V53H21zM22,52H23V53H22zM25,52H26V53H25zM26,52H27V53H26zM27,52H28V53H27zM30,52H31V53H30zM32,52H33V53H32zM34,52H35V53H34zM36,52H37V53H36zM40,52H41V53H40zM47,52H48V53H47zM48,52H49V53H48zM49,52H50V53H49zM52,52H53V53H52z" id="qr-path" fill="#000000" fill-opacity="1" fill-rule="nonzero" stroke="none" /></svg>